G04*
G04 #@! TF.GenerationSoftware,Altium Limited,Altium Designer,23.5.1 (21)*
G04*
G04 Layer_Physical_Order=1*
G04 Layer_Color=255*
%FSLAX44Y44*%
%MOMM*%
G71*
G04*
G04 #@! TF.SameCoordinates,17670BC2-17D3-42C6-95D3-1F8550388E7E*
G04*
G04*
G04 #@! TF.FilePolarity,Positive*
G04*
G01*
G75*
%ADD12C,0.2540*%
%ADD13R,1.2500X1.8000*%
%ADD14R,1.0500X1.8000*%
%ADD15R,1.6000X1.0000*%
%ADD16R,1.8062X1.6039*%
%ADD17R,1.0000X1.6000*%
%ADD18R,1.6039X1.8062*%
%ADD19R,1.1046X1.7062*%
%ADD20R,1.7062X1.1046*%
%ADD23R,1.7500X1.7500*%
%ADD24C,1.7500*%
%ADD25C,1.4500*%
%ADD26C,1.4500*%
%ADD27C,1.4000*%
%ADD28R,1.4000X1.4000*%
%ADD29C,2.1500*%
%ADD30R,2.1500X2.1500*%
%ADD31C,1.5500*%
%ADD32R,1.5500X1.5500*%
%ADD33R,2.1500X2.1500*%
%ADD34R,1.4000X1.4000*%
%ADD35C,1.0000*%
%ADD36C,1.5240*%
D12*
X232608Y314002D02*
Y368108D01*
X290900Y426400D01*
X217894Y189510D02*
X257210D01*
X296103Y235760D02*
X321502Y210360D01*
X257210Y189510D02*
X290900Y223200D01*
X321502Y210360D02*
X354540D01*
X217894Y214910D02*
X238744Y235760D01*
X296103D01*
X221294Y136859D02*
Y139609D01*
X226274Y144589D01*
X237689D01*
X290900Y197800D01*
X234173Y483128D02*
X290900Y426400D01*
X220056Y483128D02*
X234173D01*
X232608Y311252D02*
Y314002D01*
X172549Y311252D02*
Y314002D01*
X177529Y318982D01*
X189200D01*
X194280Y324062D01*
X222548D01*
X232608Y314002D01*
X354540Y210360D02*
Y236040D01*
Y261160D02*
Y286840D01*
Y261160D02*
X367100Y248600D01*
X354540Y286840D02*
X367100Y299400D01*
X354540Y236040D02*
X367100Y248600D01*
X354540Y210360D02*
X367100Y197800D01*
X434900Y130000D02*
X714688D01*
X367100Y197800D02*
X434900Y130000D01*
X714688D02*
X757560Y172872D01*
X744000Y268543D02*
Y314000D01*
Y255591D02*
Y268543D01*
X757560Y172872D02*
Y242031D01*
X744000Y255591D02*
X757560Y242031D01*
X458700Y156300D02*
X470306Y167906D01*
X473194D01*
X717900Y160100D02*
X743000Y185200D01*
X601222Y160100D02*
X717900D01*
X573726Y187596D02*
X601222Y160100D01*
X709977Y389977D02*
Y413000D01*
X706000Y386000D02*
X709977Y389977D01*
X706000Y383000D02*
Y386000D01*
X732000Y390000D02*
Y413000D01*
Y390000D02*
X736000Y386000D01*
Y383000D02*
Y386000D01*
Y380000D02*
Y383000D01*
Y380000D02*
X744000Y372000D01*
Y339000D02*
Y372000D01*
X706000Y352000D02*
Y383000D01*
Y352000D02*
X744000Y314000D01*
X683000Y352984D02*
X686016Y356000D01*
X683000Y313000D02*
Y352984D01*
X658000Y313000D02*
Y354000D01*
X660000Y356000D01*
X506000Y167906D02*
X525690Y187596D01*
X573726D01*
X473194Y167906D02*
X506000D01*
X367100Y274000D02*
X473194Y167906D01*
X391800Y223200D02*
X446000Y169000D01*
X367100Y223200D02*
X391800D01*
X561496Y338504D02*
X605504D01*
X561000Y314000D02*
X600984D01*
X564506Y401494D02*
X609494D01*
X564000Y427000D02*
X567101D01*
X571090Y423011D02*
X610000D01*
X567101Y427000D02*
X571090Y423011D01*
X610000D02*
X639011D01*
X610000Y400989D02*
X613988Y397000D01*
X646000D01*
X639011Y423011D02*
X643000Y427000D01*
X646000D01*
X448200Y335000D02*
X453600Y329600D01*
Y280225D02*
Y329600D01*
X447000Y393000D02*
X494012Y440012D01*
X502012D01*
X504300Y442300D01*
X494999Y467242D02*
X504300Y457941D01*
Y442300D02*
Y457941D01*
X449419Y467242D02*
X494999D01*
X439660Y457483D02*
X449419Y467242D01*
X429901Y457483D02*
X439660D01*
X428600Y456182D02*
X429901Y457483D01*
X384500Y393000D02*
X447000D01*
X367100Y375600D02*
X384500Y393000D01*
X433640Y273297D02*
X451600Y255337D01*
X433640Y273297D02*
Y379640D01*
X447000Y393000D01*
X451600Y226225D02*
Y255337D01*
X217894Y166709D02*
Y189510D01*
X190794Y139609D02*
X217894Y166709D01*
X190794Y136859D02*
Y139609D01*
Y136859D02*
X194194Y133459D01*
X183191Y355144D02*
X216656D01*
X142049Y314002D02*
X183191Y355144D01*
X142049Y311252D02*
Y314002D01*
X216656Y431344D02*
Y453277D01*
X189556Y480377D02*
X216656Y453277D01*
X189556Y480377D02*
Y483128D01*
X216656Y380544D02*
Y405944D01*
X217894Y214910D02*
Y240310D01*
X140456Y355144D02*
X152016Y366704D01*
Y387613D01*
X145244Y394384D02*
X152016Y387613D01*
X202108Y281496D02*
X217894Y265710D01*
X202108Y281496D02*
Y311252D01*
X142049Y308502D02*
Y311252D01*
X112886Y328045D02*
Y352974D01*
X140456Y380544D01*
Y431344D02*
X152016Y419784D01*
Y401156D02*
Y419784D01*
X130202Y394384D02*
X145244D01*
X152016Y401156D01*
X86442Y420000D02*
X104586D01*
X130202Y394384D01*
X112886Y433515D02*
Y486377D01*
Y433515D02*
X140456Y405944D01*
X112886Y269119D02*
Y295161D01*
Y269119D02*
X141694Y240310D01*
Y265710D02*
X148174Y259230D01*
Y250178D02*
Y259230D01*
Y250178D02*
X153254Y245098D01*
Y233824D02*
Y245098D01*
X146192Y226761D02*
X153254Y233824D01*
X86442Y226761D02*
X146192D01*
X153254Y219698D01*
Y201070D02*
Y219698D01*
X141694Y189510D02*
X153254Y201070D01*
X112886Y133609D02*
Y186101D01*
X141694Y214910D01*
X52735Y280412D02*
X76387D01*
X87386Y291411D01*
Y295161D01*
X73316Y214887D02*
X86442Y201761D01*
X19190Y222283D02*
X26586Y214887D01*
X73316D01*
X19190Y222283D02*
Y245657D01*
X27335Y253802D01*
Y280412D01*
X27300Y132717D02*
Y148358D01*
Y132717D02*
X35419Y124598D01*
X54907D01*
X63918Y133609D01*
X87386D01*
X30000Y172787D02*
Y201761D01*
Y172787D02*
X40000Y162787D01*
Y135658D02*
Y162787D01*
Y330094D02*
Y385000D01*
X30000Y395000D02*
X40000Y385000D01*
Y430000D02*
Y484328D01*
X30000Y420000D02*
X40000Y430000D01*
X30000Y226761D02*
X40035Y236796D01*
Y293112D01*
X52700Y471628D02*
X67449Y486377D01*
X87386D01*
X27300Y327153D02*
Y342794D01*
Y327153D02*
X35419Y319034D01*
X54907D01*
X63918Y328045D01*
X87386D01*
X52700Y342794D02*
X87752Y377846D01*
Y395000D01*
X19190Y411488D02*
X24569Y406109D01*
X76643D01*
X87752Y395000D01*
X19190Y411488D02*
Y437931D01*
X27429Y446170D02*
Y471815D01*
X19190Y437931D02*
X27429Y446170D01*
D13*
X220056Y483128D02*
D03*
X189556D02*
D03*
X142049Y311252D02*
D03*
X172549D02*
D03*
X221294Y136859D02*
D03*
X190794D02*
D03*
X202108Y311252D02*
D03*
X232608D02*
D03*
D14*
X87386Y486377D02*
D03*
X112886D02*
D03*
X87386Y328045D02*
D03*
X112886D02*
D03*
Y295161D02*
D03*
X87386D02*
D03*
X112886Y133609D02*
D03*
X87386D02*
D03*
D15*
X646000Y397000D02*
D03*
Y427000D02*
D03*
D16*
X610000Y400989D02*
D03*
Y423011D02*
D03*
D17*
X736000Y383000D02*
D03*
X706000D02*
D03*
D18*
X732000Y413000D02*
D03*
X709977D02*
D03*
D19*
X686016Y356000D02*
D03*
X660000D02*
D03*
D20*
X606000Y311992D02*
D03*
Y338008D02*
D03*
D23*
X290900Y426400D02*
D03*
D24*
Y401000D02*
D03*
Y375600D02*
D03*
Y350200D02*
D03*
Y324800D02*
D03*
Y299400D02*
D03*
Y274000D02*
D03*
Y248600D02*
D03*
Y223200D02*
D03*
Y197800D02*
D03*
X367100D02*
D03*
Y223200D02*
D03*
Y248600D02*
D03*
Y274000D02*
D03*
Y299400D02*
D03*
Y324800D02*
D03*
Y350200D02*
D03*
Y375600D02*
D03*
Y401000D02*
D03*
Y426400D02*
D03*
D25*
X491600Y455000D02*
D03*
X504300Y442300D02*
D03*
X40000Y484328D02*
D03*
X52700Y471628D02*
D03*
X40000Y330094D02*
D03*
X27300Y342794D02*
D03*
X518700Y155206D02*
D03*
X506000Y167906D02*
D03*
X27300Y148358D02*
D03*
X40000Y135658D02*
D03*
X52735Y280412D02*
D03*
X40035Y293112D02*
D03*
X458700Y156300D02*
D03*
X446000Y169000D02*
D03*
X428600Y456182D02*
D03*
X441300Y443482D02*
D03*
D26*
X517000Y455000D02*
D03*
X27300Y471628D02*
D03*
X52700Y342794D02*
D03*
X493300Y155206D02*
D03*
X52700Y148358D02*
D03*
X27335Y280412D02*
D03*
X433300Y156300D02*
D03*
X454000Y456182D02*
D03*
D27*
X564000Y427000D02*
D03*
X561000Y339000D02*
D03*
X86442Y420000D02*
D03*
X30000D02*
D03*
X86442Y226761D02*
D03*
X744000Y314000D02*
D03*
X30000Y226761D02*
D03*
X658000Y313000D02*
D03*
D28*
X564000Y402000D02*
D03*
X561000Y314000D02*
D03*
X86442Y395000D02*
D03*
X30000D02*
D03*
X86442Y201761D02*
D03*
X744000Y339000D02*
D03*
X30000Y201761D02*
D03*
D29*
X502400Y226225D02*
D03*
X477000D02*
D03*
X473600Y335000D02*
D03*
X499000D02*
D03*
X628000Y238000D02*
D03*
Y212600D02*
D03*
X685183Y235592D02*
D03*
Y210192D02*
D03*
X573726Y238396D02*
D03*
Y212996D02*
D03*
X743000Y236000D02*
D03*
Y210600D02*
D03*
X504400Y280225D02*
D03*
X479000D02*
D03*
X497800Y393000D02*
D03*
X472400D02*
D03*
D30*
X451600Y226225D02*
D03*
X448200Y335000D02*
D03*
X453600Y280225D02*
D03*
X447000Y393000D02*
D03*
D31*
X216656Y355144D02*
D03*
Y380544D02*
D03*
Y405944D02*
D03*
Y431344D02*
D03*
X140456Y405944D02*
D03*
Y380544D02*
D03*
Y355144D02*
D03*
X141694Y189510D02*
D03*
Y214910D02*
D03*
Y240310D02*
D03*
X217894Y265710D02*
D03*
Y240310D02*
D03*
Y214910D02*
D03*
Y189510D02*
D03*
D32*
X140456Y431344D02*
D03*
X141694Y265710D02*
D03*
D33*
X628000Y187200D02*
D03*
X685183Y184792D02*
D03*
X573726Y187596D02*
D03*
X743000Y185200D02*
D03*
D34*
X683000Y313000D02*
D03*
D35*
X684091Y311909D01*
Y236683D02*
Y311909D01*
Y236683D02*
X685183Y235592D01*
Y210192D02*
X685649D01*
X744000Y268543D01*
X587599Y205886D02*
X600863Y192622D01*
X614127Y168910D02*
X641873D01*
X600863Y182174D02*
Y192622D01*
X641873Y168910D02*
X646290Y173327D01*
X600863Y182174D02*
X614127Y168910D01*
X646290Y173327D02*
Y178062D01*
X676219Y207992D02*
X682982D01*
X685183Y210192D01*
X583947Y205886D02*
X587599D01*
X576837Y212996D02*
X583947Y205886D01*
X646290Y178062D02*
X676219Y207992D01*
X573726Y212996D02*
X576837D01*
X605504Y338504D02*
X606000Y338008D01*
X561000Y339000D02*
X561496Y338504D01*
X600984Y314000D02*
X602992Y311992D01*
X606000D01*
X473600Y335000D02*
Y335466D01*
Y334534D02*
Y335000D01*
X527225Y280225D02*
X561000Y314000D01*
X504400Y280225D02*
X527225D01*
X473600Y334534D02*
X491424Y316710D01*
X538710D01*
X561000Y339000D01*
X564000Y402000D02*
X564506Y401494D01*
X609494D02*
X610000Y400989D01*
X472400Y393000D02*
Y393466D01*
X505934Y427000D01*
X564000D01*
X534100Y370100D02*
Y390100D01*
X562000Y400000D02*
X564000Y402000D01*
X544000Y400000D02*
X562000D01*
X534100Y390100D02*
X544000Y400000D01*
X499000Y335000D02*
X534100Y370100D01*
X502200Y278025D02*
X504400Y280225D01*
X502200Y251891D02*
Y278025D01*
X477000Y226691D02*
X502200Y251891D01*
X477000Y226225D02*
Y226691D01*
X497800Y359666D02*
Y393000D01*
X473600Y335466D02*
X497800Y359666D01*
D36*
X150000Y109000D02*
D03*
X27000Y536000D02*
D03*
X746000Y116000D02*
D03*
X786000Y412000D02*
D03*
X652000Y538000D02*
D03*
M02*
