G04*
G04 #@! TF.GenerationSoftware,Altium Limited,Altium Designer,23.5.1 (21)*
G04*
G04 Layer_Color=16711935*
%FSLAX44Y44*%
%MOMM*%
G71*
G04*
G04 #@! TF.SameCoordinates,17670BC2-17D3-42C6-95D3-1F8550388E7E*
G04*
G04*
G04 #@! TF.FilePolarity,Negative*
G04*
G01*
G75*
%ADD22C,1.7272*%
%ADD23R,1.7500X1.7500*%
%ADD24C,1.7500*%
%ADD25C,1.4500*%
%ADD26C,1.4500*%
%ADD27C,1.4000*%
%ADD28R,1.4000X1.4000*%
%ADD29C,2.1500*%
%ADD30R,2.1500X2.1500*%
%ADD31C,1.5500*%
%ADD32R,1.5500X1.5500*%
%ADD33R,2.1500X2.1500*%
%ADD34R,1.4000X1.4000*%
D22*
X150000Y109000D02*
D03*
X27000Y536000D02*
D03*
X746000Y116000D02*
D03*
X786000Y412000D02*
D03*
X652000Y538000D02*
D03*
D23*
X290900Y426400D02*
D03*
D24*
Y401000D02*
D03*
Y375600D02*
D03*
Y350200D02*
D03*
Y324800D02*
D03*
Y299400D02*
D03*
Y274000D02*
D03*
Y248600D02*
D03*
Y223200D02*
D03*
Y197800D02*
D03*
X367100D02*
D03*
Y223200D02*
D03*
Y248600D02*
D03*
Y274000D02*
D03*
Y299400D02*
D03*
Y324800D02*
D03*
Y350200D02*
D03*
Y375600D02*
D03*
Y401000D02*
D03*
Y426400D02*
D03*
D25*
X491600Y455000D02*
D03*
X504300Y442300D02*
D03*
X40000Y484328D02*
D03*
X52700Y471628D02*
D03*
X40000Y330094D02*
D03*
X27300Y342794D02*
D03*
X518700Y155206D02*
D03*
X506000Y167906D02*
D03*
X27300Y148358D02*
D03*
X40000Y135658D02*
D03*
X52735Y280412D02*
D03*
X40035Y293112D02*
D03*
X458700Y156300D02*
D03*
X446000Y169000D02*
D03*
X428600Y456182D02*
D03*
X441300Y443482D02*
D03*
D26*
X517000Y455000D02*
D03*
X27300Y471628D02*
D03*
X52700Y342794D02*
D03*
X493300Y155206D02*
D03*
X52700Y148358D02*
D03*
X27335Y280412D02*
D03*
X433300Y156300D02*
D03*
X454000Y456182D02*
D03*
D27*
X564000Y427000D02*
D03*
X561000Y339000D02*
D03*
X86442Y420000D02*
D03*
X30000D02*
D03*
X86442Y226761D02*
D03*
X744000Y314000D02*
D03*
X30000Y226761D02*
D03*
X658000Y313000D02*
D03*
D28*
X564000Y402000D02*
D03*
X561000Y314000D02*
D03*
X86442Y395000D02*
D03*
X30000D02*
D03*
X86442Y201761D02*
D03*
X744000Y339000D02*
D03*
X30000Y201761D02*
D03*
D29*
X502400Y226225D02*
D03*
X477000D02*
D03*
X473600Y335000D02*
D03*
X499000D02*
D03*
X628000Y238000D02*
D03*
Y212600D02*
D03*
X685183Y235592D02*
D03*
Y210192D02*
D03*
X573726Y238396D02*
D03*
Y212996D02*
D03*
X743000Y236000D02*
D03*
Y210600D02*
D03*
X504400Y280225D02*
D03*
X479000D02*
D03*
X497800Y393000D02*
D03*
X472400D02*
D03*
D30*
X451600Y226225D02*
D03*
X448200Y335000D02*
D03*
X453600Y280225D02*
D03*
X447000Y393000D02*
D03*
D31*
X216656Y355144D02*
D03*
Y380544D02*
D03*
Y405944D02*
D03*
Y431344D02*
D03*
X140456Y405944D02*
D03*
Y380544D02*
D03*
Y355144D02*
D03*
X141694Y189510D02*
D03*
Y214910D02*
D03*
Y240310D02*
D03*
X217894Y265710D02*
D03*
Y240310D02*
D03*
Y214910D02*
D03*
Y189510D02*
D03*
D32*
X140456Y431344D02*
D03*
X141694Y265710D02*
D03*
D33*
X628000Y187200D02*
D03*
X685183Y184792D02*
D03*
X573726Y187596D02*
D03*
X743000Y185200D02*
D03*
D34*
X683000Y313000D02*
D03*
M02*
