G04*
G04 #@! TF.GenerationSoftware,Altium Limited,Altium Designer,23.5.1 (21)*
G04*
G04 Layer_Color=8421504*
%FSLAX44Y44*%
%MOMM*%
G71*
G04*
G04 #@! TF.SameCoordinates,17670BC2-17D3-42C6-95D3-1F8550388E7E*
G04*
G04*
G04 #@! TF.FilePolarity,Positive*
G04*
G01*
G75*
%ADD13R,1.2500X1.8000*%
%ADD14R,1.0500X1.8000*%
%ADD15R,1.6000X1.0000*%
%ADD16R,1.8062X1.6039*%
%ADD17R,1.0000X1.6000*%
%ADD18R,1.6039X1.8062*%
%ADD19R,1.1046X1.7062*%
%ADD20R,1.7062X1.1046*%
D13*
X220056Y483128D02*
D03*
X189556D02*
D03*
X142049Y311252D02*
D03*
X172549D02*
D03*
X221294Y136859D02*
D03*
X190794D02*
D03*
X202108Y311252D02*
D03*
X232608D02*
D03*
D14*
X87386Y486377D02*
D03*
X112886D02*
D03*
X87386Y328045D02*
D03*
X112886D02*
D03*
Y295161D02*
D03*
X87386D02*
D03*
X112886Y133609D02*
D03*
X87386D02*
D03*
D15*
X646000Y397000D02*
D03*
Y427000D02*
D03*
D16*
X610000Y400989D02*
D03*
Y423011D02*
D03*
D17*
X736000Y383000D02*
D03*
X706000D02*
D03*
D18*
X732000Y413000D02*
D03*
X709977D02*
D03*
D19*
X686016Y356000D02*
D03*
X660000D02*
D03*
D20*
X606000Y311992D02*
D03*
Y338008D02*
D03*
M02*
